<!--?xml version="1.0" encoding="utf-8"?-->
<!-- Generator: Adobe Illustrator 18.0.0, SVG Export Plug-In . SVG Version: 6.00 Build 0)  -->

<svg version="1.1" id="_x32_" xmlns="http://www.w3.org/2000/svg" xmlns:xlink="http://www.w3.org/1999/xlink" x="0px" y="0px" viewBox="0 0 512 512" style="width: 256px; height: 256px; opacity: 1;" xml:space="preserve">
<style type="text/css">
	.st0{fill:#4B4B4B;}
</style>
<g>
	<path class="st0" d="M469.746,42.232c-28.172-28.174-65.164-42.26-102.098-42.203c-36.934-0.057-73.926,14.029-102.102,42.203
		l-78.734,78.736l204.14,204.14l78.736-78.734C526.094,189.971,526.094,98.578,469.746,42.232z M414.488,54.656
		c-2.521,13.172-15.289,21.82-28.518,19.242c-7.502-1.43-15.23-2.176-22.963-2.234c-7.672,0-15.404,0.746-22.961,2.234
		c-8.19,1.547-16.262-1.144-21.818-6.699c-3.318-3.322-5.668-7.617-6.643-12.598c-2.518-13.17,6.07-25.883,19.297-28.461
		c10.539-2.062,21.418-3.092,32.184-3.092c10.766,0,21.588,1.088,32.18,3.092C408.418,28.66,417.067,41.43,414.488,54.656z" style="fill: rgb(75, 75, 75);"></path>
	<path class="st0" d="M143.979,131.609l-0.002,0.002l-0.112-0.111l-94.888,94.889C17.395,257.971,0,300.008,0,344.754
		C0,389.426,17.395,431.426,48.975,463c31.576,31.582,73.566,48.971,118.234,48.971c0.004,0,0.002,0,0.002,0
		c44.691,0,86.717-17.412,118.328-49.024l94.891-94.888L147.512,135.146L143.979,131.609z M167.211,466.119
		c-32.422,0-62.898-12.619-85.816-35.537c-22.92-22.926-35.543-53.402-35.543-85.828c0-32.5,12.623-63.024,35.547-85.947
		l62.467-62.471l171.721,171.723l-62.469,62.47C230.164,453.484,199.654,466.119,167.211,466.119z" style="fill: rgb(75, 75, 75);"></path>
</g>
</svg>
